# xmcd CD database file
# Copyright (C) 1995-1998 Ti Kan
#
# Track frame offsets:
#	150
#	26700
#	43075
#	61250
#	77805
#	98832
#	118212
#	140317
#
# Disc length: 1998 seconds
#
# Revision: 1
# Processed by: cddbd v1.4PL0 Copyright (c) Steve Scherf et al.
# Submitted via: CDex 1.30Release
#
DISCID=6907cc08
DTITLE=Cuby and The Blizzards - Kid Blue
DYEAR=1900
DGENRE=Blues
TTITLE0=Kid blue
TTITLE1=Goin to the city
TTITLE2=E.S.P.
TTITLE3=Perfect song
TTITLE4=Maybe we need
TTITLE5=Lonely pain
TTITLE6=Never get out off these blues alive
TTITLE7=(There ain't no real) Perfection
EXTD=ID3G:   0
EXTT0=
EXTT1=
EXTT2=
EXTT3=
EXTT4=
EXTT5=
EXTT6=
EXTT7=
PLAYORDER=
